# xmcd CD database file
#
# Track frame offsets:
#	150
#	19606
#	43261
#	63050
#	79450
#	101551
#	118631
#	131359
#	145706
#	165094
#	186458
#	206676
#	226649
#	251021
#	278369
#
# Disc length: 4046 seconds
#
# Revision: 0
# Processed by: cddbd v1.4PL0 Copyright (c) Steve Scherf et al.
# Submitted via: CDex 1.50beta9
#
DISCID=c00fcc0f
DTITLE=Duke Ellington and John Coltrane Quartet - Ballads
DYEAR=1900
DGENRE=Jazz
TTITLE0=Say It (Over And Over Again)
TTITLE1=You Don't Know What Love Is
TTITLE2=Too Young To Go Steady
TTITLE3=All Or Nothing At All
TTITLE4=I Wish I Knew
TTITLE5=What's New
TTITLE6=It's Easy To Remember
TTITLE7=Nancy (With The Laughing Face)
TTITLE8=In A Sentimental Mood (& Duke Ellington)
TTITLE9=Take The Coltrane (& Duke Ellington)
TTITLE10=Big Nick (& Duke Ellington)
TTITLE11=Stevie (& Duke Ellington)
TTITLE12=My Little Brown Book (& Duke Ellington)
TTITLE13=Angelica (& Duke Ellington)
TTITLE14=The Feeling Of Jazz (& Duke Ellington)
EXTD=
EXTT0=
EXTT1=
EXTT2=
EXTT3=
EXTT4=
EXTT5=
EXTT6=
EXTT7=
EXTT8=
EXTT9=
EXTT10=
EXTT11=
EXTT12=
EXTT13=
EXTT14=
PLAYORDER=
